<?xml version="1.0" encoding="UTF-8" standalone="no"?>
<!DOCTYPE svg PUBLIC "-//W3C//DTD SVG 1.1//EN"
 "http://www.w3.org/Graphics/SVG/1.1/DTD/svg11.dtd">
<!-- Generated by graphviz version 2.38.0 (20140413.2041)
 -->
<!-- Title: %3 Pages: 1 -->
<svg width="1034pt" height="548pt"
 viewBox="0.00 0.00 1034.00 548.00" xmlns="http://www.w3.org/2000/svg" xmlns:xlink="http://www.w3.org/1999/xlink">
<g id="graph0" class="graph" transform="scale(1 1) rotate(0) translate(4 544)">
<title>%3</title>
<polygon fill="white" stroke="none" points="-4,4 -4,-544 1030,-544 1030,4 -4,4"/>
<!-- [root] aws_instance.nginx1 -->
<g id="node1" class="node"><title>[root] aws_instance.nginx1</title>
<polygon fill="none" stroke="black" points="449.5,-324 318.5,-324 318.5,-288 449.5,-288 449.5,-324"/>
<text text-anchor="middle" x="384" y="-302.3" font-family="Times New Roman,serif" font-size="14.00">aws_instance.nginx1</text>
</g>
<!-- [root] aws_security_group.nginx&#45;sg -->
<g id="node5" class="node"><title>[root] aws_security_group.nginx&#45;sg</title>
<polygon fill="none" stroke="black" points="741.5,-252 560.5,-252 560.5,-216 741.5,-216 741.5,-252"/>
<text text-anchor="middle" x="651" y="-230.3" font-family="Times New Roman,serif" font-size="14.00">aws_security_group.nginx&#45;sg</text>
</g>
<!-- [root] aws_instance.nginx1&#45;&gt;[root] aws_security_group.nginx&#45;sg -->
<g id="edge1" class="edge"><title>[root] aws_instance.nginx1&#45;&gt;[root] aws_security_group.nginx&#45;sg</title>
<path fill="none" stroke="black" d="M448.974,-287.966C487.334,-277.909 536.051,-265.136 576.033,-254.654"/>
<polygon fill="black" stroke="black" points="576.949,-258.032 585.734,-252.111 575.174,-251.261 576.949,-258.032"/>
</g>
<!-- [root] aws_subnet.subnet1 -->
<g id="node6" class="node"><title>[root] aws_subnet.subnet1</title>
<polygon fill="none" stroke="black" points="542,-252 412,-252 412,-216 542,-216 542,-252"/>
<text text-anchor="middle" x="477" y="-230.3" font-family="Times New Roman,serif" font-size="14.00">aws_subnet.subnet1</text>
</g>
<!-- [root] aws_instance.nginx1&#45;&gt;[root] aws_subnet.subnet1 -->
<g id="edge2" class="edge"><title>[root] aws_instance.nginx1&#45;&gt;[root] aws_subnet.subnet1</title>
<path fill="none" stroke="black" d="M406.989,-287.697C418.814,-278.796 433.392,-267.823 446.179,-258.199"/>
<polygon fill="black" stroke="black" points="448.391,-260.915 454.276,-252.104 444.181,-255.322 448.391,-260.915"/>
</g>
<!-- [root] data.aws_ami.aws&#45;linux -->
<g id="node8" class="node"><title>[root] data.aws_ami.aws&#45;linux</title>
<polygon fill="none" stroke="black" points="252.5,-180 103.5,-180 103.5,-144 252.5,-144 252.5,-180"/>
<text text-anchor="middle" x="178" y="-158.3" font-family="Times New Roman,serif" font-size="14.00">data.aws_ami.aws&#45;linux</text>
</g>
<!-- [root] aws_instance.nginx1&#45;&gt;[root] data.aws_ami.aws&#45;linux -->
<g id="edge3" class="edge"><title>[root] aws_instance.nginx1&#45;&gt;[root] data.aws_ami.aws&#45;linux</title>
<path fill="none" stroke="black" d="M385.231,-287.903C385.684,-268.035 383.249,-235.492 365,-216 357.37,-207.85 307.657,-193.963 261.409,-182.449"/>
<polygon fill="black" stroke="black" points="262.156,-179.028 251.609,-180.03 260.479,-185.824 262.156,-179.028"/>
</g>
<!-- [root] var.key_name -->
<g id="node14" class="node"><title>[root] var.key_name</title>
<polygon fill="none" stroke="black" points="88,-252 -7.10543e-015,-252 -7.10543e-015,-216 94,-216 94,-246 88,-252"/>
<polyline fill="none" stroke="black" points="88,-252 88,-246 "/>
<polyline fill="none" stroke="black" points="94,-246 88,-246 "/>
<text text-anchor="middle" x="47" y="-230.3" font-family="Times New Roman,serif" font-size="14.00">var.key_name</text>
</g>
<!-- [root] aws_instance.nginx1&#45;&gt;[root] var.key_name -->
<g id="edge5" class="edge"><title>[root] aws_instance.nginx1&#45;&gt;[root] var.key_name</title>
<path fill="none" stroke="black" d="M318.273,-294.674C263.395,-285.581 182.972,-271.163 104.335,-252.197"/>
<polygon fill="black" stroke="black" points="104.801,-248.709 94.2569,-249.739 103.143,-255.509 104.801,-248.709"/>
</g>
<!-- [root] provisioner.remote&#45;exec -->
<g id="node19" class="node"><title>[root] provisioner.remote&#45;exec</title>
<ellipse fill="none" stroke="black" cx="234" cy="-234" rx="122.379" ry="18"/>
<text text-anchor="middle" x="234" y="-230.3" font-family="Times New Roman,serif" font-size="14.00">[root] provisioner.remote&#45;exec</text>
</g>
<!-- [root] aws_instance.nginx1&#45;&gt;[root] provisioner.remote&#45;exec -->
<g id="edge4" class="edge"><title>[root] aws_instance.nginx1&#45;&gt;[root] provisioner.remote&#45;exec</title>
<path fill="none" stroke="black" d="M347.306,-287.876C326.436,-278.137 300.156,-265.873 278.161,-255.609"/>
<polygon fill="black" stroke="black" points="279.568,-252.403 269.026,-251.345 276.607,-258.746 279.568,-252.403"/>
</g>
<!-- [root] aws_internet_gateway.igw -->
<g id="node2" class="node"><title>[root] aws_internet_gateway.igw</title>
<polygon fill="none" stroke="black" points="922,-252 760,-252 760,-216 922,-216 922,-252"/>
<text text-anchor="middle" x="841" y="-230.3" font-family="Times New Roman,serif" font-size="14.00">aws_internet_gateway.igw</text>
</g>
<!-- [root] aws_vpc.vpc -->
<g id="node7" class="node"><title>[root] aws_vpc.vpc</title>
<polygon fill="none" stroke="black" points="793,-180 701,-180 701,-144 793,-144 793,-180"/>
<text text-anchor="middle" x="747" y="-158.3" font-family="Times New Roman,serif" font-size="14.00">aws_vpc.vpc</text>
</g>
<!-- [root] aws_internet_gateway.igw&#45;&gt;[root] aws_vpc.vpc -->
<g id="edge6" class="edge"><title>[root] aws_internet_gateway.igw&#45;&gt;[root] aws_vpc.vpc</title>
<path fill="none" stroke="black" d="M817.764,-215.697C805.812,-206.796 791.077,-195.823 778.153,-186.199"/>
<polygon fill="black" stroke="black" points="780.08,-183.27 769.969,-180.104 775.899,-188.884 780.08,-183.27"/>
</g>
<!-- [root] aws_route_table.rtb -->
<g id="node3" class="node"><title>[root] aws_route_table.rtb</title>
<polygon fill="none" stroke="black" points="860,-324 732,-324 732,-288 860,-288 860,-324"/>
<text text-anchor="middle" x="796" y="-302.3" font-family="Times New Roman,serif" font-size="14.00">aws_route_table.rtb</text>
</g>
<!-- [root] aws_route_table.rtb&#45;&gt;[root] aws_internet_gateway.igw -->
<g id="edge7" class="edge"><title>[root] aws_route_table.rtb&#45;&gt;[root] aws_internet_gateway.igw</title>
<path fill="none" stroke="black" d="M807.124,-287.697C812.355,-279.559 818.7,-269.689 824.478,-260.701"/>
<polygon fill="black" stroke="black" points="827.541,-262.409 830.004,-252.104 821.653,-258.623 827.541,-262.409"/>
</g>
<!-- [root] aws_route_table_association.rta&#45;subnet1 -->
<g id="node4" class="node"><title>[root] aws_route_table_association.rta&#45;subnet1</title>
<polygon fill="none" stroke="black" points="874,-396 630,-396 630,-360 874,-360 874,-396"/>
<text text-anchor="middle" x="752" y="-374.3" font-family="Times New Roman,serif" font-size="14.00">aws_route_table_association.rta&#45;subnet1</text>
</g>
<!-- [root] aws_route_table_association.rta&#45;subnet1&#45;&gt;[root] aws_route_table.rtb -->
<g id="edge8" class="edge"><title>[root] aws_route_table_association.rta&#45;subnet1&#45;&gt;[root] aws_route_table.rtb</title>
<path fill="none" stroke="black" d="M762.876,-359.697C767.992,-351.559 774.195,-341.689 779.845,-332.701"/>
<polygon fill="black" stroke="black" points="782.89,-334.433 785.249,-324.104 776.964,-330.708 782.89,-334.433"/>
</g>
<!-- [root] aws_route_table_association.rta&#45;subnet1&#45;&gt;[root] aws_subnet.subnet1 -->
<g id="edge9" class="edge"><title>[root] aws_route_table_association.rta&#45;subnet1&#45;&gt;[root] aws_subnet.subnet1</title>
<path fill="none" stroke="black" d="M718.829,-359.871C668.863,-334.071 574.309,-285.247 519.404,-256.896"/>
<polygon fill="black" stroke="black" points="520.78,-253.668 510.289,-252.189 517.569,-259.887 520.78,-253.668"/>
</g>
<!-- [root] aws_security_group.nginx&#45;sg&#45;&gt;[root] aws_vpc.vpc -->
<g id="edge10" class="edge"><title>[root] aws_security_group.nginx&#45;sg&#45;&gt;[root] aws_vpc.vpc</title>
<path fill="none" stroke="black" d="M674.73,-215.697C686.937,-206.796 701.985,-195.823 715.184,-186.199"/>
<polygon fill="black" stroke="black" points="717.525,-188.824 723.543,-180.104 713.4,-183.168 717.525,-188.824"/>
</g>
<!-- [root] aws_subnet.subnet1&#45;&gt;[root] aws_vpc.vpc -->
<g id="edge11" class="edge"><title>[root] aws_subnet.subnet1&#45;&gt;[root] aws_vpc.vpc</title>
<path fill="none" stroke="black" d="M542.317,-217.754C584.817,-207.605 641.368,-193.67 691,-180 691.101,-179.972 691.202,-179.944 691.303,-179.916"/>
<polygon fill="black" stroke="black" points="692.241,-183.289 700.91,-177.199 690.335,-176.553 692.241,-183.289"/>
</g>
<!-- [root] data.aws_availability_zones.available -->
<g id="node9" class="node"><title>[root] data.aws_availability_zones.available</title>
<polygon fill="none" stroke="black" points="682.5,-180 461.5,-180 461.5,-144 682.5,-144 682.5,-180"/>
<text text-anchor="middle" x="572" y="-158.3" font-family="Times New Roman,serif" font-size="14.00">data.aws_availability_zones.available</text>
</g>
<!-- [root] aws_subnet.subnet1&#45;&gt;[root] data.aws_availability_zones.available -->
<g id="edge12" class="edge"><title>[root] aws_subnet.subnet1&#45;&gt;[root] data.aws_availability_zones.available</title>
<path fill="none" stroke="black" d="M500.483,-215.697C512.563,-206.796 527.454,-195.823 540.516,-186.199"/>
<polygon fill="black" stroke="black" points="542.813,-188.854 548.787,-180.104 538.66,-183.219 542.813,-188.854"/>
</g>
<!-- [root] var.subnet1_address_space -->
<g id="node18" class="node"><title>[root] var.subnet1_address_space</title>
<polygon fill="none" stroke="black" points="437,-180 271,-180 271,-144 443,-144 443,-174 437,-180"/>
<polyline fill="none" stroke="black" points="437,-180 437,-174 "/>
<polyline fill="none" stroke="black" points="443,-174 437,-174 "/>
<text text-anchor="middle" x="357" y="-158.3" font-family="Times New Roman,serif" font-size="14.00">var.subnet1_address_space</text>
</g>
<!-- [root] aws_subnet.subnet1&#45;&gt;[root] var.subnet1_address_space -->
<g id="edge13" class="edge"><title>[root] aws_subnet.subnet1&#45;&gt;[root] var.subnet1_address_space</title>
<path fill="none" stroke="black" d="M447.645,-215.876C431.955,-206.724 412.443,-195.342 395.546,-185.485"/>
<polygon fill="black" stroke="black" points="396.87,-182.205 386.468,-180.19 393.342,-188.252 396.87,-182.205"/>
</g>
<!-- [root] provider.aws -->
<g id="node11" class="node"><title>[root] provider.aws</title>
<polygon fill="none" stroke="black" points="566,-108 484.39,-90 566,-72 647.61,-90 566,-108"/>
<text text-anchor="middle" x="566" y="-86.3" font-family="Times New Roman,serif" font-size="14.00">provider.aws</text>
</g>
<!-- [root] aws_vpc.vpc&#45;&gt;[root] provider.aws -->
<g id="edge14" class="edge"><title>[root] aws_vpc.vpc&#45;&gt;[root] provider.aws</title>
<path fill="none" stroke="black" d="M702.722,-143.876C672.257,-132.094 632.239,-116.617 603.379,-105.456"/>
<polygon fill="black" stroke="black" points="604.638,-102.19 594.049,-101.848 602.113,-108.719 604.638,-102.19"/>
</g>
<!-- [root] var.network_address_space -->
<g id="node15" class="node"><title>[root] var.network_address_space</title>
<polygon fill="none" stroke="black" points="832.5,-108 665.5,-108 665.5,-72 838.5,-72 838.5,-102 832.5,-108"/>
<polyline fill="none" stroke="black" points="832.5,-108 832.5,-102 "/>
<polyline fill="none" stroke="black" points="838.5,-102 832.5,-102 "/>
<text text-anchor="middle" x="752" y="-86.3" font-family="Times New Roman,serif" font-size="14.00">var.network_address_space</text>
</g>
<!-- [root] aws_vpc.vpc&#45;&gt;[root] var.network_address_space -->
<g id="edge15" class="edge"><title>[root] aws_vpc.vpc&#45;&gt;[root] var.network_address_space</title>
<path fill="none" stroke="black" d="M748.236,-143.697C748.787,-135.983 749.449,-126.712 750.063,-118.112"/>
<polygon fill="black" stroke="black" points="753.557,-118.328 750.778,-108.104 746.575,-117.83 753.557,-118.328"/>
</g>
<!-- [root] data.aws_ami.aws&#45;linux&#45;&gt;[root] provider.aws -->
<g id="edge16" class="edge"><title>[root] data.aws_ami.aws&#45;linux&#45;&gt;[root] provider.aws</title>
<path fill="none" stroke="black" d="M252.634,-145.786C255.797,-145.176 258.929,-144.578 262,-144 349.22,-127.574 450.864,-110.212 511.737,-100.005"/>
<polygon fill="black" stroke="black" points="512.597,-103.41 521.882,-98.3066 511.441,-96.5057 512.597,-103.41"/>
</g>
<!-- [root] data.aws_availability_zones.available&#45;&gt;[root] provider.aws -->
<g id="edge17" class="edge"><title>[root] data.aws_availability_zones.available&#45;&gt;[root] provider.aws</title>
<path fill="none" stroke="black" d="M570.517,-143.697C569.856,-135.983 569.061,-126.712 568.324,-118.112"/>
<polygon fill="black" stroke="black" points="571.807,-117.769 567.466,-108.104 564.833,-118.367 571.807,-117.769"/>
</g>
<!-- [root] output.aws_instance_public_dns -->
<g id="node10" class="node"><title>[root] output.aws_instance_public_dns</title>
<polygon fill="none" stroke="black" points="606,-396 412,-396 412,-360 612,-360 612,-390 606,-396"/>
<polyline fill="none" stroke="black" points="606,-396 606,-390 "/>
<polyline fill="none" stroke="black" points="612,-390 606,-390 "/>
<text text-anchor="middle" x="512" y="-374.3" font-family="Times New Roman,serif" font-size="14.00">output.aws_instance_public_dns</text>
</g>
<!-- [root] output.aws_instance_public_dns&#45;&gt;[root] aws_instance.nginx1 -->
<g id="edge21" class="edge"><title>[root] output.aws_instance_public_dns&#45;&gt;[root] aws_instance.nginx1</title>
<path fill="none" stroke="black" d="M480.688,-359.876C463.797,-350.639 442.753,-339.131 424.615,-329.212"/>
<polygon fill="black" stroke="black" points="425.886,-325.917 415.433,-324.19 422.527,-332.059 425.886,-325.917"/>
</g>
<!-- [root] var.aws_access_key -->
<g id="node12" class="node"><title>[root] var.aws_access_key</title>
<polygon fill="none" stroke="black" points="478.5,-36 353.5,-36 353.5,-0 484.5,-0 484.5,-30 478.5,-36"/>
<polyline fill="none" stroke="black" points="478.5,-36 478.5,-30 "/>
<polyline fill="none" stroke="black" points="484.5,-30 478.5,-30 "/>
<text text-anchor="middle" x="419" y="-14.3" font-family="Times New Roman,serif" font-size="14.00">var.aws_access_key</text>
</g>
<!-- [root] provider.aws&#45;&gt;[root] var.aws_access_key -->
<g id="edge24" class="edge"><title>[root] provider.aws&#45;&gt;[root] var.aws_access_key</title>
<path fill="none" stroke="black" d="M541.396,-77.2836C520.285,-67.2311 489.327,-52.489 463.828,-40.3467"/>
<polygon fill="black" stroke="black" points="465.243,-37.1438 454.709,-36.0044 462.233,-43.4638 465.243,-37.1438"/>
</g>
<!-- [root] var.aws_secret_key -->
<g id="node13" class="node"><title>[root] var.aws_secret_key</title>
<polygon fill="none" stroke="black" points="623.5,-36 502.5,-36 502.5,-0 629.5,-0 629.5,-30 623.5,-36"/>
<polyline fill="none" stroke="black" points="623.5,-36 623.5,-30 "/>
<polyline fill="none" stroke="black" points="629.5,-30 623.5,-30 "/>
<text text-anchor="middle" x="566" y="-14.3" font-family="Times New Roman,serif" font-size="14.00">var.aws_secret_key</text>
</g>
<!-- [root] provider.aws&#45;&gt;[root] var.aws_secret_key -->
<g id="edge25" class="edge"><title>[root] provider.aws&#45;&gt;[root] var.aws_secret_key</title>
<path fill="none" stroke="black" d="M566,-71.6966C566,-63.9827 566,-54.7125 566,-46.1124"/>
<polygon fill="black" stroke="black" points="569.5,-46.1043 566,-36.1043 562.5,-46.1044 569.5,-46.1043"/>
</g>
<!-- [root] var.region -->
<g id="node17" class="node"><title>[root] var.region</title>
<polygon fill="none" stroke="black" points="714,-36 648,-36 648,-0 720,-0 720,-30 714,-36"/>
<polyline fill="none" stroke="black" points="714,-36 714,-30 "/>
<polyline fill="none" stroke="black" points="720,-30 714,-30 "/>
<text text-anchor="middle" x="684" y="-14.3" font-family="Times New Roman,serif" font-size="14.00">var.region</text>
</g>
<!-- [root] provider.aws&#45;&gt;[root] var.region -->
<g id="edge26" class="edge"><title>[root] provider.aws&#45;&gt;[root] var.region</title>
<path fill="none" stroke="black" d="M587.096,-76.4854C603.537,-66.7321 626.788,-52.9391 646.394,-41.3086"/>
<polygon fill="black" stroke="black" points="648.293,-44.2516 655.108,-36.1393 644.722,-38.2312 648.293,-44.2516"/>
</g>
<!-- [root] var.private_key_path -->
<g id="node16" class="node"><title>[root] var.private_key_path</title>
<polygon fill="none" stroke="black" points="1020,-396 892,-396 892,-360 1026,-360 1026,-390 1020,-396"/>
<polyline fill="none" stroke="black" points="1020,-396 1020,-390 "/>
<polyline fill="none" stroke="black" points="1026,-390 1020,-390 "/>
<text text-anchor="middle" x="959" y="-374.3" font-family="Times New Roman,serif" font-size="14.00">var.private_key_path</text>
</g>
<!-- [root] meta.count&#45;boundary (EachMode fixup) -->
<g id="node20" class="node"><title>[root] meta.count&#45;boundary (EachMode fixup)</title>
<ellipse fill="none" stroke="black" cx="797" cy="-450" rx="180.868" ry="18"/>
<text text-anchor="middle" x="797" y="-446.3" font-family="Times New Roman,serif" font-size="14.00">[root] meta.count&#45;boundary (EachMode fixup)</text>
</g>
<!-- [root] meta.count&#45;boundary (EachMode fixup)&#45;&gt;[root] aws_route_table_association.rta&#45;subnet1 -->
<g id="edge18" class="edge"><title>[root] meta.count&#45;boundary (EachMode fixup)&#45;&gt;[root] aws_route_table_association.rta&#45;subnet1</title>
<path fill="none" stroke="black" d="M785.876,-431.697C780.645,-423.559 774.3,-413.689 768.522,-404.701"/>
<polygon fill="black" stroke="black" points="771.347,-402.623 762.996,-396.104 765.459,-406.409 771.347,-402.623"/>
</g>
<!-- [root] meta.count&#45;boundary (EachMode fixup)&#45;&gt;[root] output.aws_instance_public_dns -->
<g id="edge19" class="edge"><title>[root] meta.count&#45;boundary (EachMode fixup)&#45;&gt;[root] output.aws_instance_public_dns</title>
<path fill="none" stroke="black" d="M732.329,-433.116C690.493,-422.841 635.748,-409.394 591.294,-398.476"/>
<polygon fill="black" stroke="black" points="591.94,-395.031 581.394,-396.044 590.271,-401.828 591.94,-395.031"/>
</g>
<!-- [root] meta.count&#45;boundary (EachMode fixup)&#45;&gt;[root] var.private_key_path -->
<g id="edge20" class="edge"><title>[root] meta.count&#45;boundary (EachMode fixup)&#45;&gt;[root] var.private_key_path</title>
<path fill="none" stroke="black" d="M835.392,-432.411C857.777,-422.739 886.231,-410.444 910.195,-400.089"/>
<polygon fill="black" stroke="black" points="911.684,-403.258 919.476,-396.078 908.908,-396.832 911.684,-403.258"/>
</g>
<!-- [root] provider.aws (close) -->
<g id="node21" class="node"><title>[root] provider.aws (close)</title>
<ellipse fill="none" stroke="black" cx="490" cy="-450" rx="108.581" ry="18"/>
<text text-anchor="middle" x="490" y="-446.3" font-family="Times New Roman,serif" font-size="14.00">[root] provider.aws (close)</text>
</g>
<!-- [root] provider.aws (close)&#45;&gt;[root] aws_instance.nginx1 -->
<g id="edge22" class="edge"><title>[root] provider.aws (close)&#45;&gt;[root] aws_instance.nginx1</title>
<path fill="none" stroke="black" d="M449.713,-433.122C432.869,-424.537 414.563,-412.301 403,-396 390.256,-378.034 385.757,-353.241 384.303,-334.385"/>
<polygon fill="black" stroke="black" points="387.795,-334.133 383.767,-324.334 380.805,-334.506 387.795,-334.133"/>
</g>
<!-- [root] provider.aws (close)&#45;&gt;[root] aws_route_table_association.rta&#45;subnet1 -->
<g id="edge23" class="edge"><title>[root] provider.aws (close)&#45;&gt;[root] aws_route_table_association.rta&#45;subnet1</title>
<path fill="none" stroke="black" d="M544.605,-434.411C583.423,-424.04 635.997,-409.993 678.498,-398.638"/>
<polygon fill="black" stroke="black" points="679.478,-401.999 688.235,-396.036 677.671,-395.236 679.478,-401.999"/>
</g>
<!-- [root] provisioner.remote&#45;exec (close) -->
<g id="node22" class="node"><title>[root] provisioner.remote&#45;exec (close)</title>
<ellipse fill="none" stroke="black" cx="214" cy="-450" rx="149.473" ry="18"/>
<text text-anchor="middle" x="214" y="-446.3" font-family="Times New Roman,serif" font-size="14.00">[root] provisioner.remote&#45;exec (close)</text>
</g>
<!-- [root] provisioner.remote&#45;exec (close)&#45;&gt;[root] aws_instance.nginx1 -->
<g id="edge27" class="edge"><title>[root] provisioner.remote&#45;exec (close)&#45;&gt;[root] aws_instance.nginx1</title>
<path fill="none" stroke="black" d="M234.169,-432.153C264.377,-406.92 321.482,-359.221 355.803,-330.552"/>
<polygon fill="black" stroke="black" points="358.162,-333.143 363.593,-324.046 353.674,-327.77 358.162,-333.143"/>
</g>
<!-- [root] root -->
<g id="node23" class="node"><title>[root] root</title>
<ellipse fill="none" stroke="black" cx="490" cy="-522" rx="49.2915" ry="18"/>
<text text-anchor="middle" x="490" y="-518.3" font-family="Times New Roman,serif" font-size="14.00">[root] root</text>
</g>
<!-- [root] root&#45;&gt;[root] meta.count&#45;boundary (EachMode fixup) -->
<g id="edge28" class="edge"><title>[root] root&#45;&gt;[root] meta.count&#45;boundary (EachMode fixup)</title>
<path fill="none" stroke="black" d="M530.767,-511.705C578.432,-500.836 658.417,-482.599 718.3,-468.945"/>
<polygon fill="black" stroke="black" points="719.134,-472.344 728.105,-466.709 717.578,-465.52 719.134,-472.344"/>
</g>
<!-- [root] root&#45;&gt;[root] provider.aws (close) -->
<g id="edge29" class="edge"><title>[root] root&#45;&gt;[root] provider.aws (close)</title>
<path fill="none" stroke="black" d="M490,-503.697C490,-495.983 490,-486.712 490,-478.112"/>
<polygon fill="black" stroke="black" points="493.5,-478.104 490,-468.104 486.5,-478.104 493.5,-478.104"/>
</g>
<!-- [root] root&#45;&gt;[root] provisioner.remote&#45;exec (close) -->
<g id="edge30" class="edge"><title>[root] root&#45;&gt;[root] provisioner.remote&#45;exec (close)</title>
<path fill="none" stroke="black" d="M450.749,-511.045C407.686,-500.123 337.683,-482.369 284.943,-468.993"/>
<polygon fill="black" stroke="black" points="285.526,-465.53 274.973,-466.464 283.805,-472.315 285.526,-465.53"/>
</g>
</g>
</svg>
